<svg version="1.2" baseProfile="tiny-ps" xmlns="http://www.w3.org/2000/svg" viewBox="0 0 1563 438" width="1563" height="438">
	<title>ASML_Holding_N</title>
	<style>
		tspan { white-space:pre }
		.shp0 { fill: #0f238c } 
	</style>
	<g id="layer1">
		<g id="g3337">
			<g id="g3339">
				<path id="polygon3341" class="shp0" d="M1046.17 429.4L1100.35 166.92L1120.98 429.4L1237.9 429.4L1183.71 12.77L1058.67 12.77L1000.32 262.75L941.97 12.77L816.93 12.77L762.74 429.4L879.45 429.4L900.29 166.92L954.47 429.4L1046.17 429.4Z" />
				<g id="g3343">
					<path id="polygon3345" class="shp0" d="M1408.78 12.77L1296.25 12.77L1296.25 429.4L1562.99 429.4L1562.99 341.91L1408.78 341.91L1408.78 12.77Z" />
				</g>
				<g id="g3347">
					<path id="path3349" fill-rule="evenodd" class="shp0" d="M266.76 12.77L391.8 429.4L266.76 429.4L250.08 354.41L141.72 354.41L125.05 429.4L0.01 429.4L125.04 12.77L266.76 12.77ZM158.39 275.25L233.41 275.24L195.9 104.42L158.39 275.25Z" />
				</g>
			</g>
			<g id="g3351">
				<path id="path3353" class="shp0" d="M691.89 129.42C588.33 38.88 426.72 75.69 425.14 158.59C401.64 4.78 587.7 -27.33 691.88 21.1C693.73 45.79 695.59 72.38 691.89 129.42L691.89 129.42Z" />
				<path id="path3355" class="shp0" d="M605.96 178.48C579.87 168.3 541.91 159.04 541.86 129.39C541.84 117.28 546.82 104.12 571.01 96.1C487.66 104.43 459.86 205.79 552.05 256.17C568.12 264.95 596.02 274.27 596.02 304.41C596.02 339.62 557.32 352.35 531.86 351.81C489.58 350.92 455.57 336.16 416.8 308.58L416.8 408.57C462.69 428.31 537.43 451.09 612.35 428.05C672.91 409.44 725.23 358.62 725.23 304.41C725.23 216.19 648.64 195.13 605.96 178.48L605.96 178.48Z" />
			</g>
		</g>
	</g>
</svg>