<svg version="1.2" xmlns="http://www.w3.org/2000/svg" viewBox="0 0 1601 294" width="1601" height="294">
	<title>Philips_logo_new-svg</title>
	<defs>
		<clipPath clipPathUnits="userSpaceOnUse" id="cp1">
			<path d="m-900.18-888.41h3367.56v2377.88h-3367.56z"/>
		</clipPath>
	</defs>
	<style>
		.s0 { fill: #0b5ed7 } 
	</style>
	<g id="layer1">
		<g id="g2851">
			<g id="Clip-Path: g2853" clip-path="url(#cp1)">
				<g id="g2853">
					<path id="path2859" fill-rule="evenodd" class="s0" d="m543.5 287.9h-85.9v-110.5h-89.5v110.5h-85.9v-281.1h85.9v111.8h89.5v-111.8h85.9zm381.2-56.4l-12.9 56.4h-155.3v-281h85.9v224.6zm-317.7-224.6h85.9v281h-85.9zm434.2 281.1h-85.9v-281.1h85.9zm559-88.2c0 70.6-58.9 94.1-130.6 94.1-28.3 0-63.6-4.7-89.5-14.1l-9.4-64.7c25.9 12.9 69.5 22.3 97.7 22.3 31.7 0 44.7-9.4 44.7-27 0-45.8-134.2-25.9-134.2-124.6 0-57.4 47.1-84.7 116.5-84.7 36.5 0 56.5 3.5 78.9 8.2l7 61.2c-20-8.3-49.4-14.2-76.5-14.2-24.7 0-40 7.1-40 22.4 0 44.7 135.4 27.1 135.4 121.1zm-408.4 21.2v67h-85.9v-281c29.4-3.6 70.6-5.9 104.7-5.9 88.3 0 142.4 28.2 142.4 107 0 71.7-50.6 112.9-130.6 112.9zm14.1-167c-4.4 0-9.1 0-14.1 0.3v116.1h14.1c44.8 0 62.4-24.7 62.4-61.1 0-35.3-20-55.3-62.4-55.3zm-1119.1 167v67h-85.9v-281c29.5-3.6 70.6-5.9 104.8-5.9 88.2 0 142.3 28.2 142.3 107 0 71.7-50.6 112.9-130.6 112.9zm14.2-167c-4.4 0-9.2 0-14.2 0.3v116.1h14.2c44.7 0 62.4-24.7 62.4-61.1 0-35.3-20.1-55.3-62.4-55.3z"/>
				</g>
			</g>
		</g>
	</g>
</svg>