<svg version="1.2" xmlns="http://www.w3.org/2000/svg" viewBox="0 0 1581 385" width="1581" height="385">
	<title>Signify_logo</title>
	<defs>
		<clipPath clipPathUnits="userSpaceOnUse" id="cp1">
			<path d="m423.89 281.61v-24.94q-0.08-0.81 0.19-1.58 0.28-0.76 0.85-1.34 0.58-0.57 1.34-0.85 0.77-0.27 1.58-0.19h51.25v-128.34h-41.44q-0.78 0.1-1.53-0.14-0.75-0.24-1.32-0.79-0.57-0.54-0.84-1.28-0.28-0.74-0.21-1.53v-25.11q-0.1-0.79 0.16-1.55 0.27-0.76 0.84-1.32 0.58-0.56 1.34-0.8 0.77-0.24 1.56-0.12h70.34q0.78-0.09 1.54 0.17 0.75 0.25 1.32 0.8 0.58 0.55 0.86 1.29 0.29 0.74 0.24 1.53v157.24h57.39q0.81-0.08 1.57 0.2 0.77 0.27 1.34 0.85 0.58 0.57 0.85 1.34 0.27 0.76 0.2 1.57v24.89c0 2.51-1.34 3.74-3.96 3.74h-141.28c-2.62 0-3.96-1.23-3.96-3.74m98.17-238.47c-1.33 3.22-3.28 6.15-5.74 8.61-2.46 2.47-5.38 4.43-8.6 5.76-3.22 1.34-6.67 2.03-10.15 2.03-10.74 0.02-20.44-6.44-24.57-16.36-4.13-9.92-1.87-21.36 5.72-28.96 7.59-7.61 19.01-9.89 28.94-5.79 9.93 4.11 16.4 13.8 16.4 24.55 0.01 3.48-0.67 6.93-2 10.16zm357.71 241.57q-0.25 0.75-0.81 1.31-0.56 0.56-1.31 0.81-0.76 0.25-1.54 0.13h-24.82q-0.79 0.12-1.56-0.12-0.77-0.24-1.35-0.8-0.58-0.56-0.86-1.31-0.27-0.76-0.19-1.56v-186.14c0-2.51 1.34-3.74 3.96-3.74h24.82q0.78-0.11 1.52 0.14 0.74 0.24 1.3 0.79 0.56 0.55 0.82 1.29 0.25 0.74 0.15 1.52v17.19c2.68-3.86 5.84-7.36 9.39-10.42 3.55-3.07 7.47-5.68 11.66-7.78 4.2-2.09 8.65-3.65 13.23-4.63 4.59-0.99 9.28-1.4 13.97-1.22 5.36-0.05 10.71 0.43 15.98 1.43 5.27 1 10.43 2.52 15.4 4.52 4.97 2.01 9.74 4.49 14.23 7.43 4.48 2.93 8.67 6.3 12.51 10.05 3.43 3.67 6.51 7.65 9.2 11.89 2.68 4.25 4.95 8.74 6.79 13.42 1.83 4.67 3.22 9.51 4.14 14.45 0.92 4.94 1.37 9.96 1.34 14.98v114.83q0.11 0.78-0.13 1.52-0.25 0.74-0.8 1.3-0.55 0.56-1.29 0.82-0.74 0.25-1.52 0.15h-24.93q-0.79 0.11-1.55-0.14-0.76-0.25-1.34-0.8-0.57-0.56-0.86-1.3-0.28-0.75-0.21-1.55v-114.27c-0.42-12.35-5.62-24.05-14.5-32.64-8.88-8.58-20.75-13.38-33.1-13.38-12.35 0-24.22 4.8-33.1 13.38-8.88 8.59-14.08 20.29-14.51 32.64v114.27q0.12 0.78-0.13 1.54zm485.82-242.75c0 3.35-1.79 5.58-4.35 5.58q-0.48 0.03-0.96-0.03-0.48-0.05-0.95-0.18-0.46-0.14-0.89-0.35-0.44-0.22-0.83-0.5-3.82-2.88-8.06-5.1-4.24-2.23-8.79-3.73-4.54-1.5-9.27-2.24-4.73-0.74-9.52-0.7c-17.12 0-27.33 12.05-27.33 32.25v24.66h61.86c0.76-0.13 1.54-0.07 2.27 0.17 0.74 0.23 1.4 0.64 1.95 1.19 0.54 0.54 0.95 1.21 1.19 1.94 0.23 0.74 0.29 1.52 0.17 2.28v20.25q0.16 1.16-0.2 2.26-0.37 1.11-1.19 1.94-0.82 0.82-1.93 1.19-1.11 0.36-2.26 0.19h-61.69v156.85q0.17 1.15-0.19 2.26-0.37 1.11-1.19 1.93-0.83 0.83-1.93 1.19-1.11 0.37-2.27 0.2h-21.52q-1.16 0.17-2.27-0.2-1.1-0.36-1.93-1.19-0.82-0.82-1.19-1.93-0.36-1.11-0.19-2.26v-156.62h-39.83q-1.15 0.16-2.26-0.2-1.1-0.37-1.93-1.19-0.82-0.83-1.19-1.93-0.36-1.11-0.19-2.26v-20.37q-0.17-1.15 0.19-2.26 0.37-1.11 1.19-1.93 0.83-0.83 1.93-1.2 1.11-0.36 2.26-0.19h39.83v-24.66c0-30.63 17.79-63.61 57.61-63.61q5.51-0.2 10.99 0.4 5.49 0.61 10.82 2 5.34 1.4 10.41 3.56 5.07 2.16 9.78 5.03 1.01 0.59 1.81 1.44 0.8 0.86 1.31 1.91 0.51 1.05 0.7 2.21 0.19 1.15 0.03 2.31zm-310.72 214.65q-0.08-0.81 0.19-1.58 0.28-0.76 0.85-1.34 0.58-0.57 1.34-0.85 0.77-0.27 1.58-0.19h51.26v-128.33h-41.67q-0.78 0.1-1.54-0.15-0.75-0.24-1.32-0.78-0.58-0.55-0.87-1.29-0.28-0.73-0.23-1.52v-25.11q-0.08-0.8 0.19-1.56 0.28-0.76 0.86-1.31 0.58-0.56 1.35-0.8 0.77-0.25 1.56-0.13h70.33q0.79-0.08 1.55 0.17 0.75 0.26 1.32 0.8 0.57 0.55 0.86 1.29 0.29 0.75 0.23 1.54v157.23h57.4q0.81-0.07 1.57 0.2 0.77 0.28 1.34 0.85 0.57 0.58 0.85 1.34 0.27 0.77 0.2 1.58v25.1c0 2.52-1.34 3.74-3.96 3.74h-141.28c-2.62 0-3.96-1.22-3.96-3.74zm98.39-213.58c-1.33 3.22-3.28 6.15-5.74 8.62-2.46 2.46-5.38 4.42-8.6 5.76-3.22 1.33-6.67 2.02-10.15 2.02-10.74 0.02-20.44-6.44-24.57-16.36-4.12-9.92-1.87-21.35 5.72-28.96 7.59-7.61 19.01-9.89 28.94-5.78 9.93 4.1 16.4 13.79 16.4 24.54 0.01 3.48-0.67 6.94-2 10.16zm-389.37 220.56c-4.22 4.05-8.82 7.69-13.73 10.87-4.92 3.17-10.13 5.87-15.56 8.05-5.43 2.18-11.05 3.83-16.8 4.94-5.75 1.1-11.58 1.65-17.43 1.64-52.27 0-94.82-45.53-94.82-101.33 0-49.32 33.18-90.56 77.13-99.54q0.64-0.11 1.26 0.05 0.61 0.17 1.11 0.58 0.49 0.41 0.76 0.99 0.27 0.58 0.28 1.22v29.91q-0.01 0.47-0.16 0.91-0.15 0.45-0.42 0.82-0.28 0.38-0.66 0.65-0.38 0.27-0.83 0.41c-6.7 2.28-12.99 5.6-18.65 9.85-5.66 4.24-10.61 9.36-14.67 15.16-4.05 5.8-7.17 12.21-9.22 18.98-2.05 6.77-3.01 13.83-2.86 20.9 0 37.33 28.28 67.63 63.14 67.63 34.86 0 63.14-30.3 63.14-67.63 0.15-7.21-0.86-14.41-2.99-21.3-2.14-6.9-5.38-13.4-9.59-19.26-4.22-5.86-9.35-11-15.2-15.22-5.86-4.22-12.35-7.46-19.24-9.61q-0.45-0.12-0.85-0.38-0.39-0.26-0.67-0.63-0.29-0.37-0.44-0.81-0.16-0.45-0.16-0.91v-29.3q0.01-0.65 0.3-1.23 0.29-0.59 0.8-0.99 0.51-0.41 1.14-0.56 0.64-0.14 1.27-0.01 6.26 1.33 12.27 3.5 6.01 2.17 11.67 5.15 5.66 2.98 10.86 6.71 5.19 3.73 9.82 8.13v-16.18q0-0.75 0.29-1.45 0.29-0.7 0.82-1.23 0.54-0.53 1.23-0.82 0.7-0.29 1.46-0.29h24.82q0.79-0.12 1.56 0.12 0.77 0.24 1.35 0.8 0.58 0.56 0.86 1.31 0.27 0.76 0.19 1.56v193.67c0 52.06-35.2 87.05-87.52 87.05-44.95 0-77.58-25.39-81.2-63.11q-0.15-1.15 0.21-2.25 0.38-1.1 1.2-1.92 0.82-0.82 1.92-1.19 1.09-0.37 2.24-0.22h21.87c4.18 0 4.85 2.4 5.58 5.02 5.46 21.21 21.75 32.36 48.46 32.36 35.25 0 54.66-20.47 54.66-57.58zm-378.47-61.04c-5.66 102.32-90.25 182.4-192.69 182.4-102.44 0-187.03-80.08-192.68-182.4-5.66-102.33 69.59-191.24 171.4-202.54h0.51q0.63-0.1 1.26-0.06 0.64 0.04 1.25 0.21 0.62 0.17 1.18 0.47 0.56 0.3 1.05 0.72 0.33 0.34 0.57 0.74 0.25 0.41 0.41 0.85 0.16 0.45 0.22 0.92 0.06 0.47 0.02 0.95v24.88q0.03 0.48-0.12 0.94-0.16 0.46-0.47 0.84-0.31 0.37-0.73 0.6-0.43 0.24-0.91 0.3c-84.78 9.08-147.65 82.93-143.11 168.11 4.54 85.18 74.91 151.92 160.18 151.92 85.27 0 155.64-66.74 160.18-151.92 4.54-85.18-58.33-159.03-143.11-168.11q-0.49-0.05-0.92-0.28-0.43-0.24-0.74-0.61-0.31-0.37-0.46-0.84-0.15-0.46-0.11-0.95v-24.94q-0.04-0.47 0.02-0.94 0.06-0.47 0.22-0.92 0.16-0.45 0.41-0.85 0.25-0.41 0.57-0.75 0.49-0.4 1.04-0.69 0.56-0.29 1.17-0.46 0.6-0.16 1.23-0.2 0.63-0.03 1.25 0.07h0.5c101.82 11.3 177.06 100.21 171.41 202.54zm-192.49 86.88c-44.29 0-75.19-25.95-75.19-63.11q-0.15-1.15 0.22-2.25 0.38-1.1 1.19-1.92 0.83-0.82 1.92-1.19 1.1-0.37 2.25-0.22h23.87c4.3 0 5.19 2.57 5.58 5.13 2.84 20.76 17.57 32.25 41.44 32.25 19.24 0 39.94-8.14 39.94-26 0-21.03-20.98-24.77-50.2-29.96h-1.23c-42.72-7.2-60.12-23.94-60.12-57.42 0-27 21.13-55.79 67.59-55.79 42.9 0 71.73 22.32 71.73 55.79q0.1 1.12-0.3 2.18-0.39 1.05-1.21 1.82-0.81 0.78-1.88 1.12-1.07 0.34-2.19 0.19h-20.58c-4.18 0-4.85-2.35-5.57-4.92-4.02-16.73-17.35-25.27-39.66-25.27-16.29 0-35.36 6.42-35.36 24.49 0 11.67 5.58 23.44 46.18 30.13 32.35 5.42 66.93 14.62 66.93 53.68 0 35.82-30.9 60.88-75.13 60.88zm1281.37-4.24l-73.46-187.09q-0.15-0.32-0.26-0.66-0.11-0.33-0.19-0.68-0.08-0.34-0.12-0.69-0.04-0.35-0.04-0.71-0.05-0.93 0.29-1.8 0.33-0.87 1-1.53 0.66-0.65 1.53-0.98 0.88-0.32 1.81-0.26h23.53c3.57 0 5.14 1.39 6.42 4.91l56.72 144.18 55.05-145.07q0.28-0.97 0.87-1.78 0.59-0.81 1.42-1.36 0.84-0.56 1.82-0.78 0.98-0.23 1.97-0.1h23.43q0.89-0.13 1.75 0.14 0.85 0.27 1.52 0.87 0.66 0.61 1 1.44 0.34 0.83 0.3 1.73 0.01 0.4-0.01 0.8-0.02 0.39-0.08 0.78-0.05 0.4-0.14 0.78-0.09 0.39-0.22 0.77c-14.61 39.67-84.66 224.52-89.24 234.35q-0.8 1.72-1.67 3.41-0.86 1.7-1.79 3.36-0.93 1.66-1.92 3.29-0.99 1.63-2.03 3.21-2.04 3.14-4.41 6.03-2.36 2.89-5.03 5.51-2.67 2.62-5.6 4.93-2.93 2.31-6.1 4.29-2.91 1.85-6.02 3.32-3.12 1.47-6.39 2.54-3.27 1.08-6.66 1.73-3.38 0.66-6.81 0.89-3.69 0.1-7.37-0.25-3.67-0.34-7.28-1.13-3.61-0.78-7.1-1.99-3.49-1.21-6.81-2.82-1.08-0.45-1.98-1.2-0.9-0.75-1.53-1.74-0.62-0.99-0.93-2.12-0.3-1.14-0.24-2.31v-21.48q-0.13-0.96 0.17-1.89 0.3-0.93 0.96-1.64 0.66-0.71 1.56-1.07 0.91-0.36 1.88-0.31 0.98 0.14 1.95 0.36 0.97 0.22 1.92 0.52 0.94 0.3 1.86 0.68 0.92 0.38 1.8 0.84 1.77 0.68 3.56 1.29 1.8 0.61 3.61 1.15 1.81 0.55 3.65 1.03 1.83 0.47 3.68 0.88 0.49 0.09 0.98 0.16 0.5 0.07 0.99 0.12 0.5 0.05 1 0.08 0.49 0.03 0.99 0.03 1.23 0 2.44-0.14 1.22-0.15 2.41-0.44 1.19-0.29 2.34-0.71 1.15-0.43 2.24-0.99 1.88-0.83 3.62-1.94 1.74-1.1 3.3-2.46 1.55-1.36 2.88-2.93 1.33-1.57 2.41-3.33 1.87-3.27 3.58-6.61 1.72-3.35 3.27-6.77 1.56-3.43 2.96-6.92 1.39-3.49 2.63-7.04c0 0.05 6.36-16.68 6.36-16.68z"/>
		</clipPath>
		<linearGradient id="g1" x2="1" gradientUnits="userSpaceOnUse" gradientTransform="matrix(1242.211,-869.765,701.229,1001.504,169.417,627.383)">
			<stop offset=".5" stop-color="#00e487"/>
			<stop offset="1" stop-color="#1ecbd0"/>
		</linearGradient>
	</defs>
	<style>
		.s0 { fill: url(#g1) } 
	</style>
	<g id="Clip-Path" clip-path="url(#cp1)">
		<g>
			<path fill-rule="evenodd" class="s0" d="m1581 0v385h-1581v-385z"/>
		</g>
	</g>
</svg>