<svg version="1.2" xmlns="http://www.w3.org/2000/svg" viewBox="0 0 1484 1480" width="1484" height="1480">
	<title>LIGHT</title>
	<style>
		.s0 { fill: #00e487 } 
	</style>
	<g id="Clip-Path">
		<g id="g13">
			<path id="path11" class="s0" d="m1482.6 779c-21.7 393.1-346.8 700.8-740.4 700.8-393.6 0-718.6-307.7-740.3-700.8-21.8-393.1 267.4-734.7 658.6-778.1h1.9q2.4-0.4 4.9-0.3 2.4 0.2 4.8 0.9 2.3 0.6 4.5 1.8 2.2 1.1 4 2.7 1.3 1.3 2.2 2.9 1 1.5 1.6 3.2 0.6 1.8 0.8 3.6 0.3 1.8 0.1 3.6v95.6q0.1 1.9-0.4 3.6-0.7 1.8-1.8 3.2-1.2 1.5-2.8 2.4-1.7 0.9-3.5 1.1c-325.8 34.9-567.4 318.6-549.9 645.9 17.4 327.2 287.8 583.7 615.4 583.7 327.7 0 598.1-256.5 615.5-583.7 17.5-327.3-224.1-611-549.9-645.9q-1.8-0.2-3.5-1.1-1.7-0.9-2.8-2.3-1.2-1.4-1.8-3.2-0.6-1.8-0.4-3.7v-95.8q-0.2-1.8 0-3.6 0.3-1.8 0.9-3.6 0.6-1.7 1.6-3.2 0.9-1.6 2.2-2.9 1.8-1.5 3.9-2.7 2.2-1.1 4.5-1.7 2.3-0.6 4.8-0.8 2.4-0.1 4.8 0.3h1.9c391.2 43.4 680.3 385 658.6 778.1zm-739.6 333.8c-170.2 0-288.9-99.7-288.9-242.4q-0.6-4.5 0.8-8.7 1.5-4.2 4.6-7.4 3.2-3.1 7.4-4.5 4.2-1.5 8.6-0.9h91.7c16.6 0 20 9.9 21.5 19.7 10.9 79.8 67.5 123.9 159.2 123.9 73.9 0 153.5-31.2 153.5-99.9 0-80.8-80.6-95.1-192.9-115.1h-4.7c-164.2-27.6-231-91.9-231-220.6 0-103.7 81.2-214.3 259.7-214.3 164.8 0 275.6 85.7 275.6 214.3q0.4 4.3-1.2 8.4-1.5 4-4.6 7-3.1 3-7.2 4.3-4.2 1.3-8.5 0.7h-79c-16.1 0-18.7-9-21.4-18.9-15.5-64.2-66.7-97.1-152.4-97.1-62.6 0-135.9 24.7-135.9 94.1 0 44.9 21.4 90.1 177.5 115.8 124.3 20.8 257.1 56.2 257.1 206.2 0 137.6-118.7 233.9-288.7 233.9z"/>
		</g>
	</g>
</svg>